<svg version="1.1" xmlns="http://www.w3.org/2000/svg" width="1024px" height="1024px" transform="rotate(0) scale(1, 1)">
<path d="M0 0 C48.10116576 20.57730223 96.490108 40.26755148 145.75195312 57.90869141 C146.41202362 58.14660904 147.07209412 58.38452667 147.75216675 58.62965393 C152.87329409 60.46062771 158.04919494 62.06279582 163.27856445 63.55444336 C165.42773438 64.61572266 165.42773438 64.61572266 166.32202148 66.36938477 C166.4590668 69.28151856 165.90171191 71.62031141 165.16210938 74.44384766 C164.85499023 75.61963379 164.54787109 76.79541992 164.23144531 78.00683594 C163.88160433 79.29351189 163.53032484 80.57979743 163.17773438 81.86572266 C162.99956177 82.52376892 162.82138916 83.18181519 162.63781738 83.85980225 C155.63997662 109.58988468 146.46352604 134.34360467 135.42773438 158.61572266 C134.7396167 160.13649414 134.7396167 160.13649414 134.03759766 161.68798828 C127.30276347 176.46242467 119.60722394 190.59514062 111.42773438 204.61572266 C107.18567975 204.0159226 104.03782796 201.54292743 100.59570312 199.17431641 C99.93523483 198.7267247 99.27476654 198.279133 98.59428406 197.81797791 C97.21434043 196.88212204 95.83606795 195.94379764 94.45941162 195.00311279 C92.56057244 193.70643501 90.65691261 192.4173272 88.75048828 191.13183594 C85.07603917 188.65371618 81.4078644 186.16641934 77.74023438 183.67822266 C76.38805147 182.7615108 75.03583723 181.84484516 73.68359375 180.92822266 C69.59770692 178.15827404 65.51258851 175.3871939 61.42773438 172.61572266 C60.81508728 172.20006042 60.20244019 171.78439819 59.57122803 171.35614014 C54.37481289 167.83041162 49.17872305 164.30420387 43.98291016 160.77758789 C31.44459695 152.26772777 18.89780976 143.77038443 6.35107422 135.27294922 C2.45588815 132.63484868 -1.43908087 129.99642784 -5.33398438 127.35791016 C-5.97343491 126.9247348 -6.61288544 126.49155945 -7.27171326 126.04525757 C-10.48354863 123.86948098 -13.69531761 121.69360648 -16.90698242 119.51757812 C-22.88527104 115.46720126 -28.86413517 111.41768275 -34.84515381 107.37133789 C-37.62755649 105.48887574 -40.40961519 103.60590557 -43.19165039 101.72290039 C-44.50023649 100.8373946 -45.80898546 99.95212944 -47.11791992 99.06713867 C-48.35083438 98.23353045 -49.58344531 97.39947311 -50.81573486 96.56494141 C-52.0000365 95.76367897 -53.18551922 94.96415909 -54.37225342 94.16650391 C-57.35175228 92.15655188 -60.28751834 90.10588337 -63.18066406 87.97314453 C-63.76520355 87.54874084 -64.34974304 87.12433716 -64.95199585 86.68707275 C-66.55786304 85.5169603 -68.15215242 84.33100546 -69.74560547 83.14404297 C-72.42621433 81.3826663 -72.42621433 81.3826663 -75.22338867 81.72827148 C-77.52279005 82.59702983 -79.13906428 83.4787232 -81.06835938 84.98681641 C-81.70177246 85.47335693 -82.33518555 85.95989746 -82.98779297 86.46118164 C-83.65504395 86.98655518 -84.32229492 87.51192871 -85.00976562 88.05322266 C-86.44754799 89.15871681 -87.8863677 90.26286301 -89.32617188 91.36572266 C-90.04305176 91.91744141 -90.75993164 92.46916016 -91.49853516 93.03759766 C-94.43682562 95.27365953 -97.43292085 97.42135102 -100.44726562 99.55322266 C-101.59583307 100.3681437 -102.74426748 101.18325229 -103.89257812 101.99853516 C-104.48329102 102.41780273 -105.07400391 102.83707031 -105.68261719 103.26904297 C-109.24133455 105.80520382 -112.78104461 108.36771764 -116.32226562 110.92822266 C-117.07282227 111.47091797 -117.82337891 112.01361328 -118.59667969 112.57275391 C-120.13577302 113.68566699 -121.67483518 114.79862319 -123.21386719 115.91162109 C-125.62096832 117.65091363 -128.02994926 119.38757302 -130.43945312 121.12353516 C-131.23641602 121.6980542 -132.03337891 122.27257324 -132.85449219 122.86450195 C-134.36384585 123.95247604 -135.87358203 125.03991976 -137.38378906 126.12670898 C-138.07762695 126.62710693 -138.77146484 127.12750488 -139.48632812 127.64306641 C-140.16211914 128.12501465 -140.83791016 128.60696289 -141.53417969 129.10351562 C-142.95506032 130.15777229 -144.34077417 131.26038649 -145.69628906 132.39746094 C-146.3849707 132.96577637 -147.07365234 133.5340918 -147.78320312 134.11962891 C-148.39212402 134.64500244 -149.00104492 135.17037598 -149.62841797 135.71166992 C-151.57226562 136.61572266 -151.57226562 136.61572266 -154.07739258 135.98730469 C-156.60424118 134.59814377 -158.28437592 133.23566204 -160.27929688 131.16650391 C-160.94896484 130.48265625 -161.61863281 129.79880859 -162.30859375 129.09423828 C-162.99373047 128.37945313 -163.67886719 127.66466797 -164.38476562 126.92822266 C-169.02370091 122.13835551 -173.70749783 117.54144744 -178.76635742 113.19458008 C-181.1505801 111.11011772 -183.36358427 108.8840981 -185.57226562 106.61572266 C-188.48853165 103.66389241 -191.41832397 100.81183407 -194.57226562 98.11572266 C-198.64709913 94.63239724 -202.36519554 90.83753558 -206.13085938 87.02587891 C-208.8442929 84.34717733 -211.68003585 81.86964148 -214.57617188 79.39306641 C-217.64030375 76.6647298 -220.47708394 73.71904358 -223.35742188 70.79931641 C-225.34886023 68.83597595 -227.3852914 66.99492596 -229.50976562 65.17822266 C-232.68262483 62.45953018 -235.63564944 59.58820591 -238.57226562 56.61572266 C-241.48853165 53.66389241 -244.41832397 50.81183407 -247.57226562 48.11572266 C-251.63870687 44.63957127 -255.34972432 40.8533338 -259.10742188 37.04931641 C-261.92858246 34.26392331 -264.86073303 31.65454054 -267.88085938 29.08837891 C-269.57226562 27.61572266 -269.57226562 27.61572266 -271.04492188 25.86181641 C-271.80095703 25.245 -271.80095703 25.245 -272.57226562 24.61572266 C-275.93271093 25.07386261 -278.23816278 26.52793641 -281.01757812 28.40478516 C-281.91162354 29.00444092 -282.80566895 29.60409668 -283.72680664 30.22192383 C-284.70705811 30.88812744 -285.68730957 31.55433105 -286.69726562 32.24072266 C-287.74132568 32.94366455 -288.78538574 33.64660645 -289.86108398 34.37084961 C-292.79974296 36.34986378 -295.73319853 38.33647411 -298.66583252 40.32440186 C-301.29670942 42.10642403 -303.93045799 43.88417943 -306.56416321 45.66201782 C-315.19989228 51.49151591 -323.82688117 57.33387438 -332.45202637 63.17901611 C-335.81720963 65.45931575 -339.18303431 67.73866809 -342.54882812 70.01806641 C-350.22404372 75.2161984 -357.89823644 80.4158394 -365.57226562 85.61572266 C-370.67632823 89.07420959 -375.78046026 92.53259402 -380.88476562 95.99072266 C-381.51957855 96.42080627 -382.15439148 96.85088989 -382.80844116 97.29400635 C-393.77691893 104.72480856 -404.74999602 112.14879861 -415.72418213 119.57116699 C-429.73600122 129.04819403 -443.74172863 138.53419147 -457.74560547 148.02294922 C-461.60041475 150.63485558 -465.45545098 153.24642685 -469.31054688 155.85791016 C-469.95111526 156.29184586 -470.59168365 156.72578156 -471.25166321 157.17286682 C-474.47635736 159.35732561 -477.70112833 161.54167086 -480.92602539 163.72583008 C-488.18531544 168.64260914 -495.44278064 173.56206013 -502.69773865 178.48522949 C-505.99355836 180.72124783 -509.29070995 182.95524969 -512.59106445 185.18457031 C-513.22096786 185.61008179 -513.85087128 186.03559326 -514.49986267 186.47399902 C-515.74433049 187.31464802 -516.98884674 188.15522532 -518.2334137 188.99572754 C-522.18620302 191.6685253 -526.11922983 194.36812598 -530.04492188 197.08056641 C-531.9498196 198.38402518 -533.85476398 199.68741577 -535.75976562 200.99072266 C-536.60877441 201.58618896 -537.4577832 202.18165527 -538.33251953 202.79516602 C-539.10644043 203.32118408 -539.88036133 203.84720215 -540.67773438 204.38916016 C-541.33926514 204.84726074 -542.0007959 205.30536133 -542.68237305 205.77734375 C-544.57226562 206.61572266 -544.57226562 206.61572266 -546.47827148 206.46582031 C-549.21875414 205.35326807 -551.50431686 203.87691053 -553.97070312 202.24072266 C-555.62138794 201.15223022 -555.62138794 201.15223022 -557.30541992 200.04174805 C-558.51941468 199.23314226 -559.73336175 198.42446487 -560.94726562 197.61572266 C-562.21878118 196.77457826 -563.49068216 195.93401623 -564.76293945 195.09399414 C-567.53359052 193.26376862 -570.30225626 191.43058707 -573.06982422 189.59570312 C-577.8087975 186.45616429 -582.55888227 183.33366512 -587.31054688 180.21337891 C-588.97868186 179.11768108 -590.64681337 178.02197795 -592.31494141 176.92626953 C-593.13738342 176.38607178 -593.95982544 175.84587402 -594.80718994 175.28930664 C-597.95430399 173.22198408 -601.10132977 171.15453304 -604.2467041 169.08456421 C-605.75180666 168.09461702 -607.25789645 167.10616903 -608.76501465 166.11929321 C-612.73677043 163.51226766 -616.67397611 160.86490067 -620.57861328 158.15820312 C-621.39723343 157.59620712 -622.21585358 157.03421112 -623.0592804 156.45518494 C-624.6309919 155.37417567 -626.19582381 154.28307542 -627.75260925 153.18067932 C-628.45726822 152.69832321 -629.16192719 152.2159671 -629.88793945 151.71899414 C-630.50453934 151.2877977 -631.12113922 150.85660126 -631.75642395 150.41233826 C-634.11592165 149.377219 -635.19457936 149.72552721 -637.57226562 150.61572266 C-639.28845908 151.61623589 -640.96623741 152.6837333 -642.61523438 153.79150391 C-643.5982251 154.44876465 -644.58121582 155.10602539 -645.59399414 155.78320312 C-646.63869873 156.49105957 -647.68340332 157.19891602 -648.75976562 157.92822266 C-649.83605225 158.65154785 -650.91233887 159.37487305 -652.02124023 160.12011719 C-658.98091951 164.81381821 -665.87138822 169.5967251 -672.70776367 174.46777344 C-677.52190843 177.8939259 -682.39848245 181.20619573 -687.328125 184.46337891 C-694.90705899 189.47896664 -702.40757541 194.6104621 -709.91796875 199.7277832 C-711.46581055 200.78219604 -711.46581055 200.78219604 -713.04492188 201.85791016 C-714.42562866 202.79932861 -714.42562866 202.79932861 -715.83422852 203.75976562 C-716.73778076 204.37223145 -717.64133301 204.98469727 -718.57226562 205.61572266 C-719.59376709 206.37385254 -720.61526855 207.13198242 -721.66772461 207.91308594 C-724.57226562 209.61572266 -724.57226562 209.61572266 -726.74414062 209.68823242 C-729.4316296 208.11155787 -730.33512186 206.18056785 -731.82226562 203.45556641 C-732.42441895 202.36477783 -733.02657227 201.27398926 -733.64697266 200.15014648 C-734.28963269 198.95165174 -734.93137307 197.75266348 -735.57226562 196.55322266 C-736.24349653 195.31557542 -736.91521496 194.07819247 -737.58740234 192.84106445 C-739.28751142 189.69874174 -740.96630503 186.54561563 -742.63562012 183.38684082 C-743.4978559 181.75642521 -744.36537953 180.12880894 -745.23339844 178.50146484 C-778.13311333 116.45063401 -799.43449617 41.23144206 -798.63476562 -29.32177734 C-798.62323881 -30.76000679 -798.61211742 -32.19823952 -798.60131836 -33.63647461 C-798.59173096 -34.87324951 -798.58214355 -36.11002441 -798.57226562 -37.38427734 C-786.40740919 -33.17693146 -774.29901698 -28.85109324 -762.25714111 -24.30361938 C-759.71902917 -23.3452981 -757.17971411 -22.39022164 -754.64013672 -21.43579102 C-747.55377179 -18.77166239 -740.46965371 -16.10160149 -733.38769531 -13.42578125 C-710.54688504 -4.79620176 -687.68367737 3.73381117 -664.57226562 11.61572266 C-663.83596924 11.86708984 -663.09967285 12.11845703 -662.34106445 12.37744141 C-619.59213774 26.93809078 -575.70995508 38.75899532 -530.57226562 42.61572266 C-529.39059814 42.71941162 -529.39059814 42.71941162 -528.18505859 42.82519531 C-523.31629338 43.23280786 -518.4560359 43.48455604 -513.57226562 43.61572266 C-512.76466797 43.63763672 -511.95707031 43.65955078 -511.125 43.68212891 C-470.21120497 44.6043031 -424.10229612 40.1571518 -392.86254883 10.87646484 C-379.05858936 -2.4715216 -370.729702 -18.86359053 -362.35736084 -35.90710449 C-352.05214948 -56.87967131 -341.09695153 -74.93269754 -318.10351562 -83.28662109 C-226.90620564 -111.6344575 -110.57055389 -47.18959202 0 0 Z " fill="#000000" transform="translate(821.572265625,674.38427734375)"/>
<path d="M0 0 C65.67145478 27.46745191 131.79100335 54.89228631 200.734375 73.125 C202.07260328 73.48205087 203.41081942 73.83914727 204.74902344 74.19628906 C223.1684527 79.08953251 241.71154521 83.06967593 260.421875 86.6796875 C265.57618779 87.67817372 270.66388589 88.76494693 275.734375 90.125 C280.58290968 135.45536057 281.30107749 182.1650011 272.734375 227.125 C266.64378676 225.91412628 260.91234294 224.27657124 255.1015625 222.09765625 C254.28837555 221.79739029 253.4751886 221.49712433 252.63735962 221.1877594 C249.95855418 220.19504454 247.28371384 219.19218117 244.609375 218.1875 C243.67520752 217.83830505 242.74104004 217.48911011 241.77856445 217.1293335 C218.91758646 208.57406621 196.29826033 199.43151093 173.734375 190.125 C172.84034973 189.75630798 171.94632446 189.38761597 171.02520752 189.00775146 C146.80922868 179.01109776 122.72526254 168.70975435 98.65301514 158.37277222 C78.73526148 149.82105673 58.79361259 141.33984847 38.734375 133.125 C38.0396106 132.83983521 37.34484619 132.55467041 36.62902832 132.26086426 C-17.10444719 110.2132792 -71.80765203 89.84586727 -129.265625 80.125 C-130.29300781 79.94565918 -131.32039062 79.76631836 -132.37890625 79.58154297 C-160.61002674 74.82439131 -192.12566405 74.81298133 -220.265625 80.125 C-221.02939453 80.26421875 -221.79316406 80.4034375 -222.58007812 80.546875 C-244.47052188 84.68365177 -264.57537495 93.18585816 -281.265625 108.125 C-281.88695312 108.66382813 -282.50828125 109.20265625 -283.1484375 109.7578125 C-296.29648422 121.92739993 -304.51143884 139.42926142 -312.328125 155.25 C-322.82418291 176.4101788 -333.94707107 195.08415817 -357.5234375 203.25390625 C-372.31389752 207.73736784 -386.85302802 208.53429996 -402.203125 208.5 C-403.12192444 208.49945618 -404.04072388 208.49891235 -404.98736572 208.49835205 C-431.6894675 208.42615455 -457.31190502 204.37081745 -483.265625 198.125 C-484.72693848 197.78057861 -484.72693848 197.78057861 -486.21777344 197.42919922 C-521.79795515 188.90871407 -556.63036041 176.16776064 -590.75842285 163.08459473 C-595.56774277 161.2438983 -600.38186889 159.41581691 -605.1953125 157.5859375 C-607.32373298 156.77669931 -609.45215092 155.96745444 -611.58056641 155.15820312 C-612.65139465 154.75110107 -613.7222229 154.34399902 -614.82550049 153.92456055 C-618.05898929 152.69477782 -621.29197321 151.46367502 -624.52490234 150.23242188 C-637.76817001 145.1920219 -651.03044046 140.2075877 -664.328125 135.3125 C-665.07897369 135.03576447 -665.82982239 134.75902893 -666.60342407 134.47390747 C-668.75192976 133.68274515 -670.90114766 132.89356092 -673.05078125 132.10546875 C-673.72244827 131.85879959 -674.3941153 131.61213043 -675.08613586 131.35798645 C-678.73093295 130.02642234 -682.38616033 128.73390713 -686.05810547 127.47900391 C-687.23801308 127.07298698 -687.23801308 127.07298698 -688.4417572 126.6587677 C-689.95758535 126.13900876 -691.47555915 125.62545471 -692.99586487 125.11894226 C-698.15451604 123.34721792 -698.15451604 123.34721792 -699.265625 121.125 C-699.1463811 116.15694104 -698.64258944 111.19940459 -698.203125 106.25 C-698.1369397 105.49803345 -698.07075439 104.74606689 -698.00256348 103.97131348 C-694.72502644 67.55402224 -690.27688658 20.14502059 -672.265625 -11.875 C-668.9420633 -11.28644051 -665.98072652 -10.47504997 -662.86645508 -9.17944336 C-662.0197525 -8.83014267 -661.17304993 -8.48084198 -660.3006897 -8.12095642 C-659.38806366 -7.73943924 -658.47543762 -7.35792206 -657.53515625 -6.96484375 C-655.53612359 -6.1391482 -653.53701545 -5.31363537 -651.5378418 -4.48828125 C-650.48559418 -4.05209473 -649.43334656 -3.6159082 -648.34921265 -3.16650391 C-547.04347522 39.86830022 -547.04347522 39.86830022 -439.21875 56.328125 C-437.82000641 56.33667511 -437.82000641 56.33667511 -436.39300537 56.34539795 C-434.42656565 56.35478439 -432.46011065 56.3613564 -430.49365234 56.36523438 C-427.5644784 56.3748398 -424.63603826 56.40588313 -421.70703125 56.4375 C-386.77815889 56.63374304 -351.23314331 49.92845715 -325.265625 25.125 C-324.36070312 24.33222656 -324.36070312 24.33222656 -323.4375 23.5234375 C-312.19589805 13.27992171 -305.58640669 -1.64311208 -299.140625 -15.125 C-294.22181627 -25.40881609 -289.39352976 -34.91301448 -282.265625 -43.875 C-281.85376953 -44.44927734 -281.44191406 -45.02355469 -281.01757812 -45.61523438 C-271.23795943 -58.71687259 -253.95077173 -62.88023647 -238.70703125 -65.27734375 C-157.97986045 -74.7062773 -72.34477876 -30.26262054 0 0 Z " fill="#000000" transform="translate(722.265625,479.875)"/>
<path d="M0 0 C65.34685202 -1.11872758 128.94989121 28.47301219 188.41979313 52.32955742 C229.22785976 68.75265279 229.22785976 68.75265279 270.44140625 84.12109375 C271.2607666 84.41377136 272.08012695 84.70644897 272.92431641 85.00799561 C297.16916609 93.6450213 321.55412334 101.54633581 346.44140625 108.12109375 C347.1206012 108.30093811 347.79979614 108.48078247 348.49957275 108.66607666 C376.73817497 116.11262951 405.39940816 121.78716975 434.37890625 125.43359375 C435.68303467 125.60117187 436.98716309 125.76875 438.33081055 125.94140625 C444.3049482 126.66586699 450.16747932 127.19855771 456.1875 127.2421875 C470.01153166 127.42271119 470.01153166 127.42271119 474.12988281 130.30126953 C477.43541525 133.76328364 479.26514922 137.94915005 481.15966797 142.29296875 C482.6541489 145.59050534 484.33021716 148.77537002 486.0390625 151.96484375 C489.36478799 158.1957397 492.58699933 164.47294838 495.76123047 170.78222656 C496.76226069 172.77148686 497.76754123 174.75863121 498.78173828 176.74121094 C514.46694469 207.45341115 525.08349518 241.16462229 533.00390625 274.62109375 C533.26876328 275.73641479 533.26876328 275.73641479 533.53897095 276.87426758 C534.03651675 278.98605416 534.52443182 281.09977437 535.0078125 283.21484375 C535.28568604 284.42849609 535.56355957 285.64214844 535.84985352 286.89257812 C536.37076823 289.73557286 536.56606606 292.24338838 536.44140625 295.12109375 C527.43226709 294.45031019 518.76518352 292.27688974 510.00390625 290.18359375 C509.16950012 289.98512848 508.33509399 289.78666321 507.47540283 289.58218384 C478.29207598 282.60976827 449.80862285 273.55113171 421.44433594 263.80871582 C419.58993006 263.17208318 417.7344632 262.53854328 415.87890625 261.90527344 C379.0743894 249.28627193 343.07375877 234.31252569 307.2041626 219.27850342 C266.95529526 202.37477404 266.95529526 202.37477404 226.44140625 186.12109375 C225.32088867 185.68071777 224.20037109 185.2403418 223.04589844 184.78662109 C176.55125412 166.57721306 128.33452011 149.57088773 78.44140625 144.12109375 C77.57878174 144.02683105 76.71615723 143.93256836 75.82739258 143.83544922 C66.6046462 142.94756233 57.38635901 142.87883991 48.12890625 142.87109375 C47.29058258 142.87008667 46.45225891 142.86907959 45.58853149 142.86804199 C32.01466512 142.87903704 18.80332926 143.5523367 5.44140625 146.12109375 C4.67151367 146.26562988 3.90162109 146.41016602 3.10839844 146.55908203 C-22.63843035 151.56325474 -47.27976233 163.00441273 -62.55859375 185.12109375 C-67.8400103 192.99634209 -72.18409586 201.16528285 -76.35546875 209.65625 C-78.8929647 214.81684136 -81.48999074 219.94513948 -84.12109375 225.05859375 C-84.77331909 226.35410156 -84.77331909 226.35410156 -85.4387207 227.67578125 C-88.17942817 232.97451637 -91.2808405 237.61662273 -95.04150391 242.24975586 C-96.66527287 244.20368681 -96.66527287 244.20368681 -98.37109375 246.74609375 C-109.97202047 259.34138562 -128.03617507 263.89687252 -144.55859375 265.12109375 C-172.68178498 266.25383645 -199.2586217 262.91829686 -226.55859375 256.12109375 C-227.52007324 255.88471191 -228.48155273 255.64833008 -229.47216797 255.40478516 C-264.06349819 246.74037143 -297.68785688 233.72865425 -330.66491699 220.29779053 C-333.89775297 218.98317663 -337.13278943 217.67407605 -340.36816406 216.36572266 C-347.76734349 213.37333763 -355.16375195 210.37418112 -362.55859375 207.37109375 C-363.76118835 206.88293182 -364.96378296 206.3947699 -366.20281982 205.89181519 C-369.63507671 204.49712434 -373.06583804 203.09882323 -376.49609375 201.69921875 C-377.52562164 201.28110428 -378.55514954 200.86298981 -379.61587524 200.4322052 C-384.36261071 198.49103825 -389.0184027 196.5083431 -393.55859375 194.12109375 C-384.87326144 172.83650875 -374.48636013 152.76058892 -362.55859375 133.12109375 C-362.10774414 132.37037598 -361.65689453 131.6196582 -361.19238281 130.84619141 C-350.77116843 113.51410925 -338.81266607 97.19053657 -326.55859375 81.12109375 C-322.25481898 81.71853911 -318.48406115 82.75701675 -314.4296875 84.30859375 C-313.2447168 84.75565674 -312.05974609 85.20271973 -310.83886719 85.66333008 C-310.21363159 85.90097076 -309.588396 86.13861145 -308.94421387 86.38345337 C-251.64218076 108.08041813 -177.50402844 128.49223808 -118.04296875 102.19921875 C-110.3755872 98.59605976 -103.25420242 94.32739881 -96.55859375 89.12109375 C-95.96175781 88.68796875 -95.36492187 88.25484375 -94.75 87.80859375 C-80.18643208 76.50753412 -72.02792598 57.55735199 -64.49609375 41.30859375 C-57.24709553 25.7661665 -48.38288597 11.41054879 -31.55859375 5.12109375 C-21.04536113 1.89630944 -10.99530004 0.37415401 0 0 Z " fill="#000000" transform="translate(455.55859375,241.87890625)"/>
<path d="M0 0 C3.35041071 0.01709082 6.70010575 0.00688309 10.05049229 -0.01031494 C35.26605944 -0.1198588 60.22626905 1.77530178 85.08300781 6.14111328 C85.8192337 6.26739105 86.55545959 6.39366882 87.31399536 6.52377319 C180.7670585 22.60034536 267.08629672 65.52015783 336.5234375 130.00732422 C338.04874573 131.41721447 339.58370294 132.81580347 341.12207031 134.21142578 C349.1675212 141.51544807 357.01670819 148.92008469 364.09082031 157.18408203 C365.97341022 159.3372466 367.91396077 161.42774864 369.86914062 163.51489258 C375.86660661 169.93970414 381.36001362 176.66683834 386.69189453 183.65087891 C388.02539413 185.39751344 389.36840806 187.1365445 390.71191406 188.87548828 C391.54474248 189.96342017 392.37681025 191.05193489 393.20800781 192.14111328 C394.31208984 193.58744141 394.31208984 193.58744141 395.43847656 195.06298828 C397.02050781 197.39111328 397.02050781 197.39111328 397.02050781 199.39111328 C342.47725158 193.08285796 289.56400507 178.47200981 238.08691406 159.59423828 C237.22086296 159.27736116 236.35481186 158.96048405 235.46251678 158.63400459 C215.00741837 151.13530016 194.78266166 143.07369204 174.56848145 134.95251465 C152.41649939 126.05441689 130.26664896 117.15854362 107.94238281 108.69970703 C107.20994102 108.42138975 106.47749924 108.14307247 105.72286224 107.85632133 C38.79763356 82.46628407 -45.52761777 54.87053821 -115.41699219 84.70361328 C-144.28041753 97.70458051 -156.47502361 121.04792082 -169.79980469 148.11767578 C-177.75321777 164.09362526 -185.58972661 175.86755986 -202.97949219 182.39111328 C-246.94906734 196.0019484 -297.39569604 178.30433699 -338.54199219 163.01611328 C-339.25937561 162.75127136 -339.97675903 162.48642944 -340.71588135 162.21356201 C-342.74587771 161.46094292 -344.77151454 160.69774529 -346.79589844 159.93017578 C-347.96580322 159.48883301 -349.13570801 159.04749023 -350.34106445 158.59277344 C-352.97949219 157.39111328 -352.97949219 157.39111328 -353.97949219 155.39111328 C-349.21311463 149.8088107 -344.24662207 144.50312959 -339.04199219 139.32861328 C-338.37748047 138.66023437 -337.71296875 137.99185547 -337.02832031 137.30322266 C-333.06899065 133.35157356 -328.9989432 129.58802019 -324.76342773 125.93432617 C-322.58401062 124.04899764 -320.47128609 122.09626111 -318.35449219 120.14111328 C-312.78441892 115.12127521 -306.9224216 110.53454399 -300.9921875 105.95361328 C-298.81986998 104.26719502 -296.66078395 102.56474343 -294.50292969 100.85986328 C-286.21107972 94.32503542 -277.88151404 88.08164624 -268.97949219 82.39111328 C-267.72052451 81.55822136 -266.46279142 80.72346139 -265.20605469 79.88720703 C-208.33825902 42.24261532 -144.15614083 17.65255996 -77.04199219 6.14111328 C-76.36385468 6.02200592 -75.68571716 5.90289856 -74.98703003 5.78018188 C-50.13779602 1.46345322 -25.18629473 -0.12928498 0 0 Z " fill="#000000" transform="translate(507.9794921875,139.60888671875)"/>
</svg>