<?xml version="1.0" encoding="UTF-8"?>
<svg version="1.1" xmlns="http://www.w3.org/2000/svg" width="184" height="184">
<path d="M0 0 C1.05703125 0.37382813 2.1140625 0.74765625 3.203125 1.1328125 C15.07447583 5.72915603 24.90845086 12.12732148 34 21 C34.886875 21.845625 35.77375 22.69125 36.6875 23.5625 C37.450625 24.366875 38.21375 25.17125 39 26 C39.51820313 26.52335937 40.03640625 27.04671875 40.5703125 27.5859375 C48.30292677 35.80400738 53.39352923 45.78570225 57.375 56.25 C57.61355713 56.87455078 57.85211426 57.49910156 58.09790039 58.14257812 C64.75505557 76.60072578 64.61715122 99.57577503 58 118 C57.62617188 119.05703125 57.25234375 120.1140625 56.8671875 121.203125 C52.27084397 133.07447583 45.87267852 142.90845086 37 152 C36.154375 152.886875 35.30875 153.77375 34.4375 154.6875 C33.633125 155.450625 32.82875 156.21375 32 157 C31.47664062 157.51820313 30.95328125 158.03640625 30.4140625 158.5703125 C22.19599262 166.30292677 12.21429775 171.39352923 1.75 175.375 C1.12544922 175.61355713 0.50089844 175.85211426 -0.14257812 176.09790039 C-18.60072578 182.75505557 -41.57577503 182.61715122 -60 176 C-61.05703125 175.62617188 -62.1140625 175.25234375 -63.203125 174.8671875 C-75.07447583 170.27084397 -84.90845086 163.87267852 -94 155 C-94.886875 154.154375 -95.77375 153.30875 -96.6875 152.4375 C-97.8321875 151.2309375 -97.8321875 151.2309375 -99 150 C-99.51820312 149.47664062 -100.03640625 148.95328125 -100.5703125 148.4140625 C-108.30292677 140.19599262 -113.39352923 130.21429775 -117.375 119.75 C-117.61355713 119.12544922 -117.85211426 118.50089844 -118.09790039 117.85742188 C-124.75505557 99.39927422 -124.61715122 76.42422497 -118 58 C-117.62617187 56.94296875 -117.25234375 55.8859375 -116.8671875 54.796875 C-107.88086008 31.58715519 -91.0361995 14.07783256 -68.6875 3.3125 C-47.63568621 -5.86548501 -21.76900466 -7.81844534 0 0 Z " fill="#FDFDFD" transform="translate(122,4)"/>
<path d="M0 0 C0.61860287 19.92257647 -7.37168359 40.57705386 -20.625 55.4375 C-22.07160854 56.96949016 -23.52835075 58.4920482 -25 60 C-25.845625 60.886875 -26.69125 61.77375 -27.5625 62.6875 C-28.366875 63.450625 -29.17125 64.21375 -30 65 C-30.52335937 65.51820313 -31.04671875 66.03640625 -31.5859375 66.5703125 C-44.65007713 78.8627308 -65.21152191 88.18895919 -83.2890625 88.0390625 C-84.6186499 88.03060303 -84.6186499 88.03060303 -85.97509766 88.02197266 C-86.97742432 88.01109619 -86.97742432 88.01109619 -88 88 C-88.35007119 23.42532938 -88.35007119 23.42532938 -77.4375 11.2578125 C-58.81249291 -6.07379132 -23.4580939 -0.13202668 0 0 Z " fill="#FDFDFD" transform="translate(184,96)"/>
<path d="M0 0 C19.92257647 -0.61860287 40.57705386 7.37168359 55.4375 20.625 C56.96949016 22.07160854 58.4920482 23.52835075 60 25 C60.886875 25.845625 61.77375 26.69125 62.6875 27.5625 C63.450625 28.366875 64.21375 29.17125 65 30 C65.51820313 30.52335937 66.03640625 31.04671875 66.5703125 31.5859375 C78.8627308 44.65007713 88.18895919 65.21152191 88.0390625 83.2890625 C88.03342285 84.1754541 88.0277832 85.0618457 88.02197266 85.97509766 C88.01109619 86.97742432 88.01109619 86.97742432 88 88 C82.70215179 88.02503709 77.40433931 88.04301662 72.10644531 88.05493164 C70.31054076 88.05990778 68.51464014 88.06669109 66.71875 88.07543945 C24.08078676 88.27768426 24.08078676 88.27768426 12 78 C5.57267645 71.57267645 2.52284077 63.43486615 1.25 54.5625 C1.12713623 53.72501221 1.00427246 52.88752441 0.87768555 52.0246582 C-1.21087107 34.87811778 -0.23301658 17.23964203 0 0 Z " fill="#FDFDFD" transform="translate(96,0)"/>
<path d="M0 0 C63.92796327 -0.89131652 63.92796327 -0.89131652 76.94140625 10.734375 C93.90667225 29.21220688 88.12626297 64.70933739 88 88 C68.07742353 88.61860287 47.42294614 80.62831641 32.5625 67.375 C31.03050984 65.92839146 29.5079518 64.47164925 28 63 C27.113125 62.154375 26.22625 61.30875 25.3125 60.4375 C24.549375 59.633125 23.78625 58.82875 23 58 C22.48179688 57.47664063 21.96359375 56.95328125 21.4296875 56.4140625 C9.1372692 43.34992287 -0.18895919 22.78847809 -0.0390625 4.7109375 C-0.03342285 3.8245459 -0.0277832 2.9381543 -0.02197266 2.02490234 C-0.01472168 1.35668457 -0.0074707 0.6884668 0 0 Z " fill="#FDFDFD" transform="translate(0,96)"/>
<path d="M0 0 C2.64 0 5.28 0 8 0 C8.01458252 1.16233154 8.02916504 2.32466309 8.04418945 3.5222168 C6.03941097 42.23094242 6.03941097 42.23094242 19.51171875 76.72265625 C34.07808405 89.83620821 59.12770571 87.15160045 77.375 87.5625 C79.19011141 87.60581737 81.00521567 87.64943521 82.8203125 87.69335938 C87.21346719 87.7990288 91.60669781 87.90066039 96 88 C96 90.64 96 93.28 96 96 C95.06953857 96.02505615 94.13907715 96.0501123 93.18041992 96.07592773 C83.4550131 96.34101856 73.73044738 96.62742047 64.00634766 96.93682861 C62.2490817 96.99215747 60.49173401 97.04487813 58.734375 97.09716797 C44.24945779 97.54982163 29.11899669 98.06142546 18.1875 108.75 C4.36046195 129.29302796 8.61650488 160.23185351 8 184 C5.36 184 2.72 184 0 184 C-0.02505615 183.03400879 -0.0501123 182.06801758 -0.07592773 181.07275391 C-0.3191105 171.78834693 -0.58498327 162.50483332 -0.87207031 153.22167969 C-0.94813431 150.75362828 -1.01818843 148.28583011 -1.08105469 145.81738281 C-1.44683995 131.58356496 -2.65871118 116.34128882 -13.25 105.75 C-19.76575805 101.60360851 -26.36969636 99.30161344 -34 98.3125 C-34.88703613 98.19221436 -35.77407227 98.07192871 -36.68798828 97.94799805 C-53.65307947 95.94959349 -70.93781474 96.22081049 -88 96 C-88 93.36 -88 90.72 -88 88 C-86.9577124 87.97494385 -85.9154248 87.9498877 -84.84155273 87.92407227 C-80.89957539 87.82845931 -76.95771292 87.72864299 -73.01586914 87.62768555 C-71.32383956 87.58490817 -69.6317824 87.54320562 -67.93969727 87.50268555 C-36.70697365 88.06300977 -36.70697365 88.06300977 -9.75 74.875 C-4.11685376 65.62054546 -2.07497306 55.01892089 -1.484375 44.35546875 C-1.44220352 43.61490738 -1.40003204 42.87434601 -1.35658264 42.11134338 C-0.89076976 33.55821655 -0.65764558 24.99981515 -0.4375 16.4375 C-0.39412617 14.82876939 -0.35050732 13.22004537 -0.30664062 11.61132812 C-0.20162054 7.74095502 -0.09985305 3.87050971 0 0 Z " fill="#1C1C1C" transform="translate(88,0)"/>
</svg>
